PathFileType	4	(X/Y/Z)	OpenSim_Sub10_EMGBaseline_Gyro.trc
DataRate	CameraRate	NumFrames	NumMarkers	Units	OrigDataRate	OrigDataStartFrame	OrigNumFrames
100	100	38	8	m	100	1	8201
Frame#	Time	torso_imu_offset_imu	pelvis_imu_offset_imu	tibia_r_imu_offset_imu	femur_r_imu_offset_imu	tibia_l_imu_offset_imu	femur_l_imu_offset_imu	toes_r_imu_offset_imu	toes_l_imu_offset_imu
				X1	Y1	Z1	X2	Y2	Z2	X3	Y3	Z3	X4	Y4	Z4	X5	Y5	Z5	X6	Y6	Z6	X7	Y7	Z7	X8		Y8	Z8	

1	0	-0.00360600	-0.01083100	-0.00656700	-0.00253200	0.01232700	-0.00653600	0.01204500	0.00297000	-0.00126100	-0.00655000	0.01611700	-0.01172100	0.00017100	0.01591800	-0.00132600	-0.00665200	0.00013700	0.01896100	0.00024500	0.00231500	-0.00033800	-0.00035200	0.00717200	0.00135800
2	0.01000000	-0.01074700	-0.00999600	-0.00325400	-0.00271900	0.01571000	-0.00493900	0.01188100	0.00174600	0.00141000	-0.00580600	0.01470600	-0.01169500	0.00371200	0.01472200	-0.00140400	-0.00466400	0.00193400	0.01905500	0.00266600	0.00385500	-0.00017400	-0.00199300	0.01119700	-0.00133200
3	0.02000000	-0.01337600	-0.01225800	-0.00694000	-0.00341300	0.01430500	-0.00648200	0.00633700	0.00444500	-0.00190300	-0.00404800	0.01232100	-0.00999800	0.00476100	0.01386600	-0.00061300	0.00073300	-0.00381900	0.01917200	0.00266600	0.00385500	-0.00017400	-0.00147500	0.01019500	0.00279500
4	0.03000000	-0.01298900	-0.01198400	-0.00548900	-0.00199300	0.01376100	-0.00661700	0.00239900	0.00100600	0.00300400	-0.00165200	0.01308900	-0.01266700	0.00317800	0.00902600	0.00198900	0.00561100	-0.00432500	0.01811300	0.00349800	0.00750500	0.00029800	-0.00223600	0.01101200	0.00122400
5	0.04000000	-0.01491800	-0.01059800	-0.00686100	-0.00041800	0.01318900	-0.00512600	-0.00088500	0.00245800	-0.00277400	-0.00298500	0.01248600	-0.01215500	0.00712200	0.00854900	0.00665400	0.00264900	-0.00470100	0.01636900	-0.00351900	0.00519700	-0.00053200	0.00030000	0.01370800	0.00173600
6	0.05000000	-0.01534200	-0.00932300	-0.00860600	-0.00629200	0.01051800	-0.00447600	-0.00256300	-0.00222800	-0.00033300	-0.00313900	0.01590900	-0.01272400	0.01196400	0.00354600	0.00586100	0.00864000	-0.00641500	0.01125000	0.00775200	0.00925100	-0.00018400	-0.00500800	0.01309400	0.00162000
7	0.06000000	-0.01877100	-0.00506700	-0.00372200	-0.00714000	0.00914100	-0.00764500	-0.00125800	-0.00073900	0.00074500	-0.00772800	0.01208700	-0.01064600	0.00455000	0.00738200	0.00080300	0.00452900	-0.00361800	0.00746500	0.00092800	0.00035600	0.00196000	-0.00476400	0.01327700	-0.00093400
8	0.07000000	-0.01646000	-0.00893800	-0.00678200	-0.00679000	0.01395800	-0.00612900	-0.00067500	0.00443200	-0.00362200	-0.00600700	0.01698500	-0.00844400	0.00376300	0.00463500	0.00569900	0.00850600	-0.00002200	0.00765300	-0.00017100	0.00709400	0.00159200	-0.00388600	0.01006900	0.00018400
9	0.08000000	-0.02128100	-0.00922100	-0.00064500	-0.00572000	0.00859700	-0.00777900	-0.00079200	0.00395900	0.00087200	-0.00980300	0.01289300	-0.01016400	-0.00010000	0.00662100	0.00775400	0.00825900	-0.00095200	0.00436400	0.00291100	0.00616900	-0.00051200	-0.00058800	0.01194800	0.00226900
10	0.09000000	-0.01827000	-0.00944400	-0.00139100	-0.00840500	0.00965500	-0.00588400	-0.00650000	0.00543500	0.00023100	-0.01188000	0.01370000	-0.00968000	-0.00580900	0.00737000	0.00672300	0.00202400	-0.00016800	0.00619600	-0.00041700	0.00477900	0.00193000	-0.00211000	0.01358200	-0.00087400
11	0.10000000	-0.01440900	-0.01221800	0.00135100	-0.00679600	0.00572900	-0.00761600	-0.00524100	0.00617400	-0.00051400	-0.01219900	0.01212200	-0.00749800	0.00134300	0.00713800	0.00609700	-0.00466900	-0.00320800	0.00755300	0.00198300	0.00581300	-0.00247200	-0.00312500	0.00925000	0.00175700
12	0.11000000	-0.01051000	-0.01654200	0.00438500	-0.00591400	0.00375200	-0.00766900	-0.00633600	0.00665800	-0.00244100	-0.01795600	0.01269600	-0.00766200	-0.00259100	0.00696200	0.00862300	-0.00306400	-0.00255600	0.01006900	0.00291000	0.00616900	-0.00051200	-0.00123200	0.01037400	0.00024500
13	0.12000000	-0.00703700	-0.01959100	0.00567500	-0.00203800	0.00065900	-0.00636600	-0.00910800	0.00245500	-0.00192700	-0.01662200	0.01329800	-0.00817500	-0.00017100	0.00446000	0.00822700	-0.01323800	-0.00072200	0.00850700	0.00073500	0.00694300	-0.00101500	-0.00489200	0.01069900	0.00116900
14	0.13000000	-0.00591900	-0.01997600	0.00385100	-0.00415000	-0.00020300	-0.00777600	-0.01146000	0.00220000	-0.00310800	-0.01741500	0.01356600	-0.00437900	0.00079700	0.00209400	0.00229600	-0.01014000	-0.00674300	0.01384900	0.00268500	0.00436100	0.00439300	-0.00098600	0.01055800	-0.00230900
15	0.14000000	-0.00480100	-0.02036100	0.00202600	-0.00330300	0.00117300	-0.00460600	-0.00789500	0.00244400	-0.00449500	-0.00931100	0.01262200	-0.00305600	0.00376400	0.00463600	0.00570200	-0.01589400	-0.00924100	0.01075400	0.00599200	0.00524400	-0.00261500	-0.00412200	0.01484300	0.00109600
16	0.15000000	-0.00680700	-0.01587400	0.00007100	-0.00603300	0.00042700	-0.01251600	-0.00486700	0.00937000	-0.00403400	-0.01314500	0.01581100	-0.00427300	0.00272400	0.00484100	0.01210600	-0.01536000	-0.00274000	0.01412500	-0.00017300	0.00709300	0.00159100	0.00078000	0.00910700	-0.00171900
17	0.16000000	-0.00109000	-0.01693800	0.00359400	-0.01228600	0.00451800	-0.00867300	0.00049300	0.00367000	-0.00801300	-0.01145200	0.01071000	-0.00747600	0.00134400	0.00713900	0.00610000	-0.00992800	-0.00385100	0.01103500	0.00290900	0.00616900	-0.00051200	-0.00288000	0.00943200	-0.00079600
18	0.17000000	-0.00491400	-0.01571300	0.00114800	-0.01098400	0.00065100	-0.01365500	0.00440500	0.00813900	-0.00477700	-0.01447800	0.01520600	-0.00376400	0.00726900	0.01287500	0.00572000	-0.00975600	-0.00560200	0.01142600	-0.00051400	0.00807200	0.00044200	0.00053400	0.00892200	0.00083600
19	0.18000000	-0.00537800	-0.01288700	-0.00088800	-0.00906300	0.00489500	-0.01064700	0.00717800	0.01234100	-0.00529200	-0.01240000	0.01440000	-0.00424800	0.00358500	0.00975000	0.00674000	-0.00738300	-0.00265700	0.00909800	0.00325000	0.00518900	0.00063800	-0.00022600	0.00973800	-0.00073500
20	0.19000000	-0.00502700	-0.01106300	0.00027000	-0.01013800	0.00202700	-0.01048500	0.00927500	0.00987200	-0.00508600	-0.01240000	0.01439900	-0.00424900	0.00398000	0.01112300	0.00429200	-0.00216300	-0.00666500	0.00882100	0.00139700	0.00447700	-0.00328300	-0.00212100	0.00861400	0.00077700
21	0.20000000	-0.00838700	-0.01266500	-0.00013900	-0.00890900	0.00486600	-0.00902100	0.00696800	0.01036700	-0.00444500	-0.01234800	0.01554100	-0.00807600	0.00647200	0.01078200	0.00342600	0.00038000	-0.00547000	0.00688400	0.00750300	0.00693500	0.00015700	-0.00098600	0.01055500	-0.00230600
22	0.21000000	-0.01000500	-0.00790400	-0.00064200	-0.00729800	0.00094200	-0.01075400	0.00617600	0.01432500	-0.00357500	-0.01112900	0.01228700	-0.00966300	0.01250400	0.00924300	0.00248400	0.00317000	-0.00996700	0.01754100	-0.00193100	0.00308800	-0.00084200	-0.00188400	0.00383700	-0.00013300
23	0.22000000	-0.00603100	-0.00231000	-0.00438600	-0.00357400	0.00610700	-0.00958600	-0.00016200	0.00987900	-0.00167500	-0.00866800	0.01577400	-0.00742700	0.01781800	0.00712100	0.00597000	0.00303900	-0.00357000	0.01394600	0.00232300	0.00483300	-0.00132300	-0.00187400	0.00879800	-0.00177700
24	0.23000000	-0.01403700	0.02114900	-0.00043000	-0.00492000	0.00817200	-0.01440600	-0.00025200	0.00837700	-0.00532200	-0.01516800	0.01775300	-0.00762600	0.01478500	0.00176700	0.01022800	0.00303900	-0.00357100	0.01394600	-0.00134500	0.00442300	-0.00003100	0.00078000	0.00910400	-0.00171600
25	0.24000000	-0.01523700	0.00885900	0.00228200	-0.00203700	0.00066000	-0.00636400	-0.00185500	0.00341300	-0.00919800	-0.01053800	0.01429800	-0.01020600	0.01261100	0.00196800	0.00192300	0.00380300	-0.00789600	0.01840800	0.00117100	0.00267000	0.00162200	-0.00200300	0.00622500	0.00032200
26	0.25000000	-0.00456200	-0.01389100	0.00230200	0.00134000	0.00101000	-0.00671400	0.00431700	0.00663600	-0.00842700	-0.00915100	0.01604600	-0.01454300	0.01091700	0.00440600	0.00508700	0.00346100	-0.00439600	0.01762600	0.00300500	0.00287500	0.00097600	-0.00123300	0.01036800	0.00025100
27	0.26000000	0.00519400	-0.01521300	-0.00322000	0.00644600	0.00075900	-0.00395000	0.00755200	0.00443500	-0.00446900	-0.00472700	0.01487100	-0.01386300	0.00690800	0.00207100	0.00808200	0.00329000	-0.00264700	0.01723500	0.00141500	0.00498400	0.00128400	-0.00288100	0.00942900	-0.00079300
28	0.27000000	0.00410100	-0.00611200	-0.01434300	0.00890400	-0.00178900	-0.00251400	0.00998100	0.00441100	-0.00960600	-0.00206000	0.01607900	-0.01488400	0.00521400	0.00450900	0.01124600	0.00311900	-0.00089800	0.01684300	-0.00110100	0.00673600	-0.00037000	-0.00211200	0.01357100	-0.00086400
29	0.28000000	-0.00064900	-0.01225300	-0.01350100	0.01224300	0.00191400	0.00036000	0.01149500	0.00787400	-0.00937800	-0.00057100	0.01326100	-0.01482800	0.00648100	0.01013900	0.01062500	0.00342300	-0.00242700	0.01152400	0.00359000	0.00421000	0.00178800	-0.00413500	0.00987400	0.00274500
30	0.29000000	0.00668800	0.02052800	-0.00094600	0.00744600	0.00210500	0.00084500	0.01515000	0.00962000	-0.00711800	-0.00163700	0.01309100	-0.01267500	-0.00703200	0.01335300	0.00696400	0.00397700	-0.00303000	0.00949300	-0.00193100	0.00308800	-0.00084200	0.00029500	0.01369200	0.00175300
31	0.30000000	-0.00561200	0.01924300	0.00736100	0.00376000	0.00181400	-0.00205500	0.01351600	0.00568500	-0.00285200	0.00593000	0.01128400	-0.01462700	0.00495400	0.00875500	-0.00163700	0.00957700	-0.00589400	0.00679300	0.00323000	0.00468200	-0.00392800	-0.00123400	0.01036500	0.00025300
32	0.31000000	-0.01115400	0.01961100	0.01677800	0.00095600	0.00777300	-0.00351800	0.01645500	0.01110800	-0.00604300	0.00551000	0.01584100	-0.00811100	0.00810200	0.00553900	0.00793600	0.01390000	-0.00580400	0.00776200	0.00092600	0.00035600	0.00196100	-0.00099600	0.00559100	-0.00065900
33	0.32000000	-0.00738900	0.01443000	0.00716200	0.00514200	0.00462400	0.00103400	0.01489800	0.00689300	-0.00809600	0.00961000	0.01151900	-0.01397500	0.01088800	0.01384700	0.00518700	0.01805200	-0.00396400	0.00833900	0.00183400	0.00020500	-0.00064500	-0.00175600	0.00640700	-0.00223000
34	0.33000000	-0.00594400	-0.00265700	0.00208100	0.00874800	0.00646700	-0.00264600	0.01007300	0.00591000	-0.00596500	0.01355500	0.01219000	-0.01167800	0.01193600	0.01299100	0.00598100	0.01029100	-0.00114400	0.01055600	0.00285700	-0.00273100	0.00280300	0.00088800	0.00175500	-0.00052600
35	0.34000000	-0.00811200	-0.00774200	0.00043000	0.00874800	0.00646700	-0.00264600	0.00671600	0.00763900	-0.00542900	0.01270000	0.00974100	-0.01278400	0.01009100	0.01175100	0.00289100	0.00677300	-0.00091100	0.01084400	-0.00048800	-0.00462700	0.00067700	0.00012900	0.00257200	-0.00209800
36	0.35000000	-0.00131600	-0.00764000	0.00183400	0.00663700	0.00560400	-0.00405500	0.01238100	0.00541500	-0.00660700	0.01382300	0.01262500	-0.01003600	0.00575400	0.01085400	0.00066400	-0.00263700	-0.00338500	0.01375100	-0.00400900	0.00056900	0.00014100	0.00266400	0.00526600	-0.00157900
37	0.36000000	-0.00013500	-0.01387600	-0.00529200	0.00114900	0.00439000	-0.00511600	0.00835000	0.00047400	-0.00534200	0.01238900	0.01658200	-0.01392600	0.00239000	0.00693700	-0.00029900	0.00049900	-0.00476900	0.01588500	-0.00173700	-0.00349800	0.00213300	-0.00087800	0.00320300	-0.00111500
38	0.37000000	0.00920600	-0.01116700	-0.00667200	-0.00065400	0.00346900	-0.00327600	0.01028400	0.00788200	-0.00681900	0.00625500	0.01442900	-0.00808900	0.01919200	0.00547900	0.00480800	0.00409900	-0.00232800	0.01849300	-0.00102300	0.00293700	-0.00344800	0.00053200	0.00891500	0.00084300
